# AST/ASF file generated using VICON BodyLanguage
# -----------------------------------------------
:version 1.10
:name VICON
:units
  mass 1.0
  length 0.45
  angle deg
:documentation
   .ast/.asf automatically generated from VICON data using
   VICON BodyBuilder and BodyLanguage model FoxedUp or BRILLIANT.MOD
:root
   order TX TY TZ RX RY RZ
   axis XYZ
   position 0 0 0  
   orientation 0 0 0 
:bonedata
  begin
     id 1 
     name lhipjoint
     direction 0.635376 -0.686425 0.353719 
     length 2.47244 
     axis 0 0 0  XYZ
  end
  begin
     id 2 
     name lfemur
     direction 0.34202 -0.939693 0  
     length 7.25268  
     axis 0 0 20  XYZ
    dof rx ry rz
    limits (-160.0 20.0)
           (-70.0 70.0)
           (-60.0 70.0)
  end
  begin
     id 3 
     name ltibia
     direction 0.34202 -0.939693 0   
     length 7.6767   
     axis 0 0 20   XYZ
    dof rx
    limits (-10.0 170.0)
  end
  begin
     id 4 
     name lfoot
     direction 0.0803374 -0.220725 0.972022   
     length 2.22945   
     axis -90 7.62852e-016 20   XYZ
    dof rx rz
    limits (-45.0 90.0)
           (-70.0 20.0)
  end
  begin
     id 5 
     name ltoes
     direction 1.53579e-011 -4.21994e-011 1   
     length 1.11848   
     axis -90 7.62852e-016 20   XYZ
    dof rx
    limits (-90.0 20.0)
  end
  begin
     id 6 
     name rhipjoint
     direction -0.664428 -0.664335 0.342336   
     length 2.55466  
     axis 0 0 0  XYZ 
  end
  begin
     id 7 
     name rfemur
     direction -0.34202 -0.939693 0   
     length 6.83172   
     axis 0 0 -20   XYZ
    dof rx ry rz
    limits (-160.0 20.0)
           (-70.0 70.0)
           (-70.0 60.0)
  end
  begin
     id 8 
     name rtibia
     direction -0.34202 -0.939693 0   
     length 7.62692   
     axis 0 0 -20   XYZ
    dof rx
    limits (-10.0 170.0)
 end
 begin
     id 9 
     name rfoot
     direction -0.0949276 -0.260811 0.960711   
     length 2.19684  
     axis -90 -7.62852e-016 -20   XYZ
    dof rx rz
    limits (-45.0 90.0)
           (-20.0 70.0)
  end
  begin
     id 10 
     name rtoes
     direction -1.53543e-011 -4.2183e-011 1   
     length 1.09848   
     axis -90 -7.62852e-016 -20   XYZ
    dof rx
    limits (-90.0 20.0)
  end
  begin
     id 11 
     name lowerback
     direction 0.0118782 0.999815 -0.0151555   
     length 2.15772   
     axis 0 0 0   XYZ
    dof rx ry rz
    limits (-20.0 45.0)
           (-30.0 30.0)
           (-30.0 30.0)
  end
  begin
     id 12 
     name upperback
     direction 0.00130825 0.999065 0.0432113   
     length 2.14863   
     axis 0 0 0   XYZ
    dof rx ry rz
    limits (-20.0 45.0)
           (-30.0 30.0)
           (-30.0 30.0)
  end
  begin
     id 13 
     name thorax
     direction -0.00347005 0.998773 0.0494011   
     length 2.14936   
     axis 0 0 0   XYZ
    dof rx ry rz
    limits (-20.0 45.0)
           (-30.0 30.0)
           (-30.0 30.0)
  end
  begin
     id 14 
     name lowerneck
     direction -0.0262159 0.99424 0.103921   
     length 1.69373   
     axis 0 0 0   XYZ
    dof rx ry rz
    limits (-20.0 45.0)
           (-30.0 30.0)
           (-30.0 30.0)
  end
  begin
     id 15 
     name upperneck
     direction 0.0353511 0.977394 -0.20845   
     length 1.70857   
     axis 0 0 0   XYZ
    dof rx ry rz
    limits (-20.0 45.0)
           (-30.0 30.0)
           (-30.0 30.0)
  end
  begin
     id 16
     name head
     direction 0.0139214 0.996594 -0.0812836  
     length 1.72777  
     axis 0 0 0   XYZ
    dof rx ry rz
    limits (-20.0 45.0)
           (-30.0 30.0)
           (-30.0 30.0)
  end
  begin
     id 17 
     name lclavicle
     direction 0.841247 0.537205 -0.0609508  
     length 3.55371  
     axis 0 0 0   XYZ
    dof ry rz
    limits (-20.0 10.0)
           (0.0 20.0)
  end
  begin
     id 18 
     name lhumerus
     direction 1 -4.48964e-011 1.60116e-018   
     length 4.91377   
     axis -180 -30 -90   XYZ
    dof rx ry rz
    limits (-60.0 90.0)
           (-90.0 90.0)
           (-90.0 90.0)
  end
  begin
     id 19
     name lradius
     direction 1 -4.48989e-011 -8.93847e-027   
     length 3.00291   
     axis -180 -30 -90   XYZ
    dof rx
    limits (-10.0 170.0)
  end
  begin
     id 20
     name lwrist
     direction 1 -4.48932e-011 -7.31504e-027   
     length 1.50145   
     axis 5.74121e-015 90 90   XYZ
    dof ry
    limits (-180.0 0.0)
 end
  begin
     id 21 
     name lhand
     direction 1 -4.48971e-011 -1.46301e-026   
     length 0.450922   
     axis 9.33524e-015 90 90   XYZ
    dof rx rz
    limits (-90.0 90.0)
           (-45.0 45.0)
  end
  begin
     id 22 
     name lfingers
     direction 1 -4.49039e-011 -2.92602e-026   
     length 0.363545   
     axis 1.86705e-014 90 90   XYZ
    dof rx
    limits (0.0 90.0)
  end
  begin
     id 23
     name lthumb
     direction 0.707107 -6.34941e-011 0.707107   
     length 0.52198   
     axis -90 45 2.85299e-015   XYZ
    dof rx rz
    limits (-45.0 45.0)
           (-45.0 45.0)
  end
  begin
     id 24 
     name rclavicle
     direction -0.825079 0.56158 -0.0622297   
     length 3.39909  
     axis 0 0 0   XYZ 
    dof ry rz
    limits (-10.0 20.0)
           (-20.0 0.0)
  end
  begin
     id 25 
     name rhumerus
     direction -1 -4.48965e-011 1.61691e-027  
     length 4.86725   
     axis -180 30 90   XYZ
    dof rx ry rz
    limits (-90.0 60.0)
           (-90.0 90.0)
           (-90.0 90.0)
  end
  begin
     id 26 
     name rradius
     direction -1 -4.48964e-011 -2.25776e-027   
     length 3.17144   
     axis -180 30 90   XYZ
    dof rx
    limits (-10.0 170.0)
  end
  begin
     id 27 
     name rwrist
     direction -1 -4.48961e-011 -7.31504e-027   
     length 1.58572   
     axis 5.74121e-015 -90 -90   XYZ
    dof ry
    limits (-180.0 0.0)
  end
  begin
     id 28
     name rhand
     direction -1 -4.49013e-011 -1.46301e-026   
     length 0.419368   
     axis 9.33524e-015 -90 -90   XYZ
    dof rx rz
    limits (-90.0 90.0)
           (-45.0 45.0)
  end
  begin
     id 29
     name rfingers
     direction -1 -4.489e-011 -2.92602e-026   
     length 0.338105   
     axis 1.86705e-014 -90 -90   XYZ
    dof rx
    limits (0.0 90.0)
  end
  begin
     id 30
     name rthumb
     direction -0.707107 -6.35022e-011 0.707107   
     length 0.485453   
     axis -90 -45 -2.85299e-015   XYZ
    dof rx rz
    limits (-45.0 45.0)
           (-45.0 45.0)
  end
:hierarchy
  begin
    root lhipjoint rhipjoint lowerback
    lhipjoint lfemur
    lfemur ltibia
    ltibia lfoot
    lfoot ltoes
    rhipjoint rfemur
    rfemur rtibia
    rtibia rfoot
    rfoot rtoes
    lowerback upperback
    upperback thorax
    thorax lowerneck lclavicle rclavicle
    lowerneck upperneck
    upperneck head
    lclavicle lhumerus
    lhumerus lradius
    lradius lwrist
    lwrist lhand lthumb
    lhand lfingers
    rclavicle rhumerus
    rhumerus rradius
    rradius rwrist
    rwrist rhand rthumb
    rhand rfingers
  end

#!OML:ASF H:\Swim 2\Project 1\Capture day 1\Session 1\male.ASF
:FULLY-SPECIFIED
:DEGREES
577
root 7.73515 10.101 13.5664 107.222 -2.79836 2.52883
lowerback -11.754 2.05972 5.61458
upperback -8.44285 2.27681 -6.4659
thorax -1.88542 0.794534 -9.87195
lowerneck -16.0547 -3.17623 4.01133
upperneck 13.5429 -5.89663 4.11273
head 6.80211 -2.24463 0.0676507
rclavicle -1.19271e-014 3.40916e-014
rhumerus 48.668 -26.4268 -4.07742
rradius 33.0046
rwrist 15.6099
rhand -37.6344 7.34939
rfingers 7.12502
rthumb -10.6866 -22.3588
lclavicle -1.19271e-014 3.40916e-014
lhumerus 79.723 18.9455 28.186
lradius 18.0677
lwrist -2.15306
lhand -43.863 -15.8641
lfingers 7.12502
lthumb -16.6893 13.4385
rfemur -37.3999 -10.8061 18.1375
rtibia 102.925
rfoot 35.6305 8.53645
rtoes 11.534
lfemur -37.6405 -8.18884 -18.4202
ltibia 97.8456
lfoot 18.6733 -5.11636
ltoes 17.545
578
root 7.73903 10.1026 13.5895 107.518 -2.77711 2.47719
lowerback -11.9619 2.08718 5.49049
upperback -8.59475 2.31726 -6.45284
thorax -1.93065 0.814657 -9.77811
lowerneck -15.9471 -3.19434 4.04196
upperneck 12.5136 -5.8604 4.07384
head 6.44845 -2.2729 0.0660469
rclavicle 1.98785e-014 -5.05907e-014
rhumerus 47.2723 -26.4349 -4.17185
rradius 32.8442
rwrist 14.8283
rhand -37.6195 6.63985
rfingers 7.12502
rthumb -10.6723 -23.0691
lclavicle 1.98785e-014 -5.05907e-014
lhumerus 78.6253 19.3632 28.3916
lradius 17.8852
lwrist -2.57239
lhand -43.7012 -15.5055
lfingers 7.12502
lthumb -16.5336 13.8101
rfemur -37.2595 -10.2364 18.4031
rtibia 100.755
rfoot 35.0123 7.96452
rtoes 11.6358
lfemur -37.6267 -8.67306 -18.2304
ltibia 95.6249
lfoot 18.5553 -4.19321
ltoes 17.9102
579
root 7.74253 10.1044 13.6099 107.801 -2.7565 2.42075
lowerback -12.167 2.11294 5.37621
upperback -8.74242 2.35495 -6.4368
thorax -1.97374 0.833394 -9.6871
lowerneck -15.8395 -3.22691 4.04806
upperneck 11.481 -5.84196 4.0525
head 6.0976 -2.30912 0.0725601
rclavicle -2.22639e-014 5.46658e-015
rhumerus 45.9041 -26.4209 -4.30446
rradius 32.7043
rwrist 13.8813
rhand -37.5786 5.83112
rfingers 7.12502
rthumb -10.6328 -23.8799
lclavicle -2.22639e-014 5.46658e-015
lhumerus 77.3789 19.7729 28.3566
lradius 17.7734
lwrist -2.80395
lhand -43.6807 -14.9772
lfingers 7.12502
lthumb -16.5138 14.3401
rfemur -37.0956 -9.66987 18.6549
rtibia 98.4878
rfoot 34.3722 7.31979
rtoes 11.7914
lfemur -37.5687 -9.13513 -18.038
ltibia 93.3025
lfoot 18.4292 -3.25687
ltoes 18.1787
580
root 7.7462 10.1063 13.6276 108.092 -2.74502 2.37713
lowerback -12.3895 2.13914 5.25343
upperback -8.89659 2.39391 -6.41577
thorax -2.01498 0.853412 -9.5851
lowerneck -15.7188 -3.26875 4.05253
upperneck 10.4704 -5.83207 3.99617
head 5.75271 -2.35118 0.0679207
rclavicle 3.97569e-015 -2.59414e-014
rhumerus 44.5507 -26.3787 -4.47546
rradius 32.5922
rwrist 12.7845
rhand -37.5265 4.9653
rfingers 7.12502
rthumb -10.5825 -24.7483
lclavicle 3.97569e-015 -2.59414e-014
lhumerus 75.9941 20.1171 28.1483
lradius 17.7523
lwrist -2.83731
lhand -43.7638 -14.2488
lfingers 7.12502
lthumb -16.5938 15.0618
rfemur -36.9362 -9.12964 18.8872
rtibia 96.1337
rfoot 33.7272 6.61473
rtoes 11.9751
lfemur -37.5015 -9.59672 -17.8463
ltibia 90.8879
lfoot 18.2953 -2.31272
ltoes 18.2928
581
root 7.74992 10.1083 13.6427 108.38 -2.73979 2.3357
lowerback -12.6121 2.18003 5.09582
upperback -9.06781 2.45731 -6.38743
thorax -2.07108 0.887401 -9.45171
lowerneck -15.5673 -3.31825 4.08897
upperneck 9.52918 -5.83004 3.84701
head 5.42267 -2.39987 0.0288779
rclavicle -7.95139e-016 -1.10325e-014
rhumerus 43.1585 -26.2894 -4.62717
rradius 32.5339
rwrist 11.4644
rhand -37.4209 4.13699
rfingers 7.12502
rthumb -10.4807 -25.5817
lclavicle -7.95139e-016 -1.10325e-014
lhumerus 74.4542 20.3267 27.6998
lradius 17.8349
lwrist -2.50508
lhand -43.9041 -13.3017
lfingers 7.12502
lthumb -16.7289 15.9975
rfemur -36.7724 -8.60231 19.0989
rtibia 93.6983
rfoot 33.0708 5.86954
rtoes 12.1589
lfemur -37.4121 -10.0453 -17.6571
ltibia 88.3886
lfoot 18.1518 -1.36711
ltoes 18.2511
582
root 7.75402 10.1108 13.655 108.672 -2.74089 2.30496
lowerback -12.8408 2.23254 4.90532
upperback -9.25975 2.54067 -6.3515
thorax -2.14399 0.932929 -9.28839
lowerneck -15.4198 -3.37026 4.13972
upperneck 8.73011 -5.83469 3.62239
head 5.13675 -2.45018 -0.0373473
rclavicle 1.19271e-014 -1.17283e-014
rhumerus 41.7241 -26.1444 -4.74881
rradius 32.5448
rwrist 9.91032
rhand -37.2737 3.32775
rfingers 7.12502
rthumb -10.3387 -26.3981
lclavicle 1.19271e-014 -1.17283e-014
lhumerus 72.7564 20.3671 27.0241
lradius 18.0399
lwrist -1.73274
lhand -44.0506 -12.1699
lfingers 7.12502
lthumb -16.8699 17.1174
rfemur -36.6215 -8.09421 19.2915
rtibia 91.1885
rfoot 32.4202 5.08786
rtoes 12.3467
lfemur -37.322 -10.4919 -17.4658
ltibia 85.8118
lfoot 18.0225 -0.432672
ltoes 18.0679
583
root 7.75869 10.1136 13.6643 108.973 -2.75822 2.29397
lowerback -13.0888 2.29236 4.68954
upperback -9.47276 2.63699 -6.31165
thorax -2.22873 0.986232 -9.10441
lowerneck -15.2563 -3.42834 4.15908
upperneck 8.06987 -5.84683 3.37469
head 4.89311 -2.50044 -0.106993
rclavicle -1.43125e-014 2.10712e-014
rhumerus 40.2686 -25.9491 -4.86381
rradius 32.6319
rwrist 8.14513
rhand -37.086 2.56261
rfingers 7.12502
rthumb -10.1576 -27.1722
lclavicle -1.43125e-014 2.10712e-014
lhumerus 70.8222 20.2113 25.8737
lradius 18.3615
lwrist -0.244173
lhand -44.1495 -10.8973
lfingers 7.12502
lthumb -16.9651 18.3818
rfemur -36.4884 -7.61714 19.4555
rtibia 88.6074
rfoot 31.7785 4.27475
rtoes 12.516
lfemur -37.2454 -10.9484 -17.2785
ltibia 83.1666
lfoot 17.9265 0.468376
ltoes 17.7774
584
root 7.763 10.1163 13.6715 109.25 -2.7677 2.27389
lowerback -13.3248 2.36996 4.45366
upperback -9.70434 2.76147 -6.25842
thorax -2.33704 1.05526 -8.89121
lowerneck -15.0241 -3.50335 4.12034
upperneck 7.4856 -5.87499 3.15215
head 4.6655 -2.55518 -0.160021
rclavicle -1.74931e-014 1.02374e-014
rhumerus 38.7666 -25.6607 -4.90557
rradius 32.8058
rwrist 6.15761
rhand -36.8908 1.78067
rfingers 7.12502
rthumb -9.96931 -27.9632
lclavicle -1.74931e-014 1.02374e-014
lhumerus 68.6705 19.8114 24.2352
lradius 18.7998
lwrist 2.03357
lhand -44.1533 -9.49908
lfingers 7.12502
lthumb -16.9688 19.7797
rfemur -36.3303 -7.12323 19.6091
rtibia 85.9442
rfoot 31.15 3.40501
rtoes 12.6878
lfemur -37.1323 -11.386 -17.0808
ltibia 80.4452
lfoot 17.8815 1.31659
ltoes 17.4748
585
root 7.76668 10.1183 13.6768 109.497 -2.7627 2.22719
lowerback -13.5404 2.48234 4.16146
upperback -9.96752 2.94208 -6.18306
thorax -2.4846 1.15654 -8.61518
lowerneck -14.6589 -3.61704 4.03039
upperneck 6.91628 -5.94344 2.95474
head 4.4241 -2.62892 -0.197328
rclavicle -2.70347e-014 6.50026e-014
rhumerus 37.1545 -25.229 -4.77679
rradius 33.0818
rwrist 3.98053
rhand -36.6925 0.917313
rfingers 7.12502
rthumb -9.77798 -28.8357
lclavicle -2.70347e-014 6.50026e-014
lhumerus 66.4034 19.096 22.334
lradius 19.3703
lwrist 4.96507
lhand -44.0271 -8.03282
lfingers 7.12502
lthumb -16.8473 21.2564
rfemur -36.1371 -6.59099 19.7524
rtibia 83.1954
rfoot 30.5315 2.47805
rtoes 12.8318
lfemur -36.9729 -11.7922 -16.8725
ltibia 77.6497
lfoot 17.9102 2.07973
ltoes 17.216
